<?xml version="1.0" encoding="utf-8"?>
<!DOCTYPE svg PUBLIC "-//W3C//DTD SVG 20010904//EN" "http://www.w3.org/TR/2001/REC-SVG-20010904/DTD/svg10.dtd">
<svg version="1.0" xmlns="http://www.w3.org/2000/svg" width="21px" height="20px" viewBox="0 0 21 20" preserveAspectRatio="xMidYMid meet">
 <g fill="#000000">
  <path d="M0 10 l0 -10 10.5 0 10.5 0 0 10 0 10 -10.5 0 -10.5 0 0 -10z"/>
 </g>
 <g fill="#e04c4c">
  <path d="M3.4 16.6 c-4.2 -4.2 -4.5 -8.2 -0.8 -12.5 2.8 -3.4 8.3 -4.9 11.7 -3.3 1.8 0.8 1.4 1 -2.4 0.8 -7.4 -0.2 -11.9 5.2 -9.8 11.4 1.1 3 5.3 6 8.4 6 5.7 0 10.4 -6.5 8.4 -11.8 l-1 -2.7 -3.6 5.9 -3.6 5.9 -2.4 -2.9 c-3 -3.8 -3 -5.4 0.1 -2.5 l2.3 2.2 3.4 -5.2 3.3 -5.2 1.8 2.3 c4.8 5.9 -0.7 15 -9.2 15 -2.3 0 -4.2 -1 -6.6 -3.4z"/>
 </g>
</svg>